<svg xmlns="http://www.w3.org/2000/svg" viewBox="0 0 32 32">
  <defs>
    <linearGradient id="flame" x1="0%" y1="100%" x2="0%" y2="0%">
      <stop offset="0%" stop-color="#FF5020"/>
      <stop offset="60%" stop-color="#FF6600"/>
      <stop offset="100%" stop-color="#FFCC00"/>
    </linearGradient>
  </defs>
  <rect width="32" height="32" rx="6" fill="#0A0A14"/>
  <path d="M16 4C12 10 8 14 8 18C8 22.4183 11.5817 26 16 26C20.4183 26 24 22.4183 24 18C24 14 20 10 16 4Z" fill="url(#flame)" opacity="0.9"/>
  <path d="M16 10C14 13 12 15 12 17.5C12 19.7091 13.7909 21.5 16 21.5C18.2091 21.5 20 19.7091 20 17.5C20 15 18 13 16 10Z" fill="#FFE066" opacity="0.6"/>
  <path d="M15 16L14 19H16L15 22" stroke="#FF5020" stroke-width="1.2" stroke-linecap="round" fill="none"/>
  <text x="16" y="13" text-anchor="middle" fill="#0A0A14" font-size="6" font-weight="900" font-family="system-ui">TS</text>
</svg>
